<svg xmlns="http://www.w3.org/2000/svg" width="108.098" height="83.098" viewBox="0 0 108.098 83.098">
  <g id="Logo" transform="translate(54.137 -812.753)">
    <path id="Path_1" data-name="Path 1" d="M-48.232,893.658l46.464-46.465L-5.3,843.658l-46.464,46.464Z" fill="none" stroke="#000" stroke-linecap="round" stroke-linejoin="round" stroke-width="0.85" fill-rule="evenodd"/>
    <path id="Path_2" data-name="Path 2" d="M26.768,868.658,0,895.425l-23.232-23.232,3.536-3.535L0,888.354l23.232-23.232L46.465,841.89,25,820.425l-19.7,19.7-3.536-3.536L25,813.354,53.535,841.89Z" fill="none" stroke="#000" stroke-linecap="round" stroke-linejoin="round" stroke-width="0.85" fill-rule="evenodd"/>
    <path id="Path_3" data-name="Path 3" d="M-53.535,841.89-25,813.354" fill="none" stroke="#000" stroke-linecap="round" stroke-linejoin="round" stroke-width="0.85" fill-rule="evenodd"/>
    <path id="Path_4" data-name="Path 4" d="M0,838.354l-25-25" fill="none" stroke="#000" stroke-linecap="round" stroke-linejoin="round" stroke-width="0.85" fill-rule="evenodd"/>
    <path id="Path_5" data-name="Path 5" d="M-46.465,841.89-25,820.425" fill="none" stroke="#000" stroke-linecap="round" stroke-linejoin="round" stroke-width="0.85" fill-rule="evenodd"/>
    <path id="Path_6" data-name="Path 6" d="M0,845.425l-25-25" fill="none" stroke="#000" stroke-linecap="round" stroke-linejoin="round" stroke-width="0.85" fill-rule="evenodd"/>
    <path id="Path_7" data-name="Path 7" d="M51.768,890.122l-3.536,3.536L26.768,872.193l3.536-3.535Z" fill="none" stroke="#000" stroke-linecap="round" stroke-linejoin="round" stroke-width="0.85" fill-rule="evenodd"/>
    <path id="Path_8" data-name="Path 8" d="M-3.536,841.89,0,845.425" fill="none" stroke="#000" stroke-linecap="round" stroke-linejoin="round" stroke-width="0.85" fill-rule="evenodd"/>
    <path id="Path_9" data-name="Path 9" d="M0,838.354l3.536,3.536" fill="none" stroke="#000" stroke-linecap="round" stroke-linejoin="round" stroke-width="0.85" fill-rule="evenodd"/>
    <path id="Path_10" data-name="Path 10" d="M25,863.354l-3.535,3.536" fill="none" stroke="#000" stroke-linecap="round" stroke-linejoin="round" stroke-width="0.85" fill-rule="evenodd"/>
    <path id="Path_11" data-name="Path 11" d="M28.535,866.89,25,870.425" fill="none" stroke="#000" stroke-linecap="round" stroke-linejoin="round" stroke-width="0.85" fill-rule="evenodd"/>
    <path id="Path_12" data-name="Path 12" d="M23.232,861.586,19.7,865.122" fill="none" stroke="#000" stroke-linecap="round" stroke-linejoin="round" stroke-width="0.85" fill-rule="evenodd"/>
    <path id="Path_13" data-name="Path 13" d="M23.232,861.586,0,838.354" fill="none" stroke="#000" stroke-linecap="round" stroke-linejoin="round" stroke-width="0.85" fill-rule="evenodd"/>
    <path id="Path_14" data-name="Path 14" d="M19.7,865.122,0,845.425" fill="none" stroke="#000" stroke-linecap="round" stroke-linejoin="round" stroke-width="0.85" fill-rule="evenodd"/>
    <path id="Path_15" data-name="Path 15" d="M-25,870.425l3.535-3.535" fill="none" stroke="#000" stroke-linecap="round" stroke-linejoin="round" stroke-width="0.85" fill-rule="evenodd"/>
    <path id="Path_16" data-name="Path 16" d="M-28.535,866.89-25,863.354" fill="none" stroke="#000" stroke-linecap="round" stroke-linejoin="round" stroke-width="0.85" fill-rule="evenodd"/>
    <path id="Path_17" data-name="Path 17" d="M-30.3,865.122l3.536-3.536" fill="none" stroke="#000" stroke-linecap="round" stroke-linejoin="round" stroke-width="0.85" fill-rule="evenodd"/>
    <path id="Path_18" data-name="Path 18" d="M-26.768,861.586l-19.7-19.7" fill="none" stroke="#000" stroke-linecap="round" stroke-linejoin="round" stroke-width="0.85" fill-rule="evenodd"/>
    <path id="Path_19" data-name="Path 19" d="M-30.3,865.122-53.535,841.89" fill="none" stroke="#000" stroke-linecap="round" stroke-linejoin="round" stroke-width="0.85" fill-rule="evenodd"/>
  </g>
</svg>
